<mxfile host="app.diagrams.net" modified="2024-03-26T12:55:33.728Z" agent="Mozilla/5.0 (Windows NT 10.0; Win64; x64; rv:124.0) Gecko/20100101 Firefox/124.0" version="24.1.0" etag="XjtFYYE86Iq6VkEow4pA" type="github">
  <diagram name="Trang-1" id="ieBLJ_wK9-3HWzbrthAw">
    <mxGraphModel>
      <root>
        <mxCell id="0" />
        <mxCell id="1" parent="0" />
      </root>
    </mxGraphModel>
  </diagram>
</mxfile>
